<!-- Generated by IcoMoon.io -->
<svg version="1.1" xmlns="http://www.w3.org/2000/svg" width="37" height="32" viewBox="0 0 37 32">
<title>company2</title>
<path fill="#afb1b8" d="M15.647 2.683h-0.125c-0.192-0.012-0.384-0.016-0.576-0.021h-0.416c-0.363 0-0.733 0.009-1.101 0.027-0.012-0.001-0.027-0.002-0.042-0.002s-0.029 0.001-0.043 0.002l0.002-0c-3.53 0.206-6.807 1.089-9.77 2.52l0.154-0.067-0.395 0.19v20.244l0.925-0.314c0.812-0.279 1.677-0.53 2.572-0.762 2.211-0.592 4.757-0.948 7.38-0.983l0.021-0v2.66c-0.331 0.002-0.652 0.011-0.974 0.027h-0.077c-2.078 0.117-4.026 0.429-5.9 0.92l0.206-0.046c-2.577 0.655-4.834 1.561-6.933 2.72l0.149-0.075v-25.963c2.049-1.218 4.42-2.211 6.93-2.854l0.188-0.041c2.010-0.541 4.319-0.856 6.701-0.865l0.006-0h0.39c0.467 0.012 0.923 0.033 1.351 0.065 1.232 0.089 2.373 0.278 3.476 0.562l-0.134-0.029v2.618c-0.933-0.229-2.039-0.402-3.171-0.484l-0.067-0.004-0.066-0.006c-0.226-0.019-0.452-0.038-0.662-0.038zM20.254 5.359c0.581 0.045 1.182 0.066 1.79 0.066 2.51-0.010 4.938-0.339 7.252-0.95l-0.201 0.045c2.576-0.657 4.832-1.563 6.93-2.721l-0.15 0.076v25.499c-2.049 1.217-4.42 2.209-6.93 2.854l-0.189 0.041c-2.010 0.539-4.32 0.853-6.702 0.863l-0.006 0c-0.049 0-0.107 0.001-0.165 0.001-1.748 0-3.445-0.219-5.065-0.631l0.142 0.031v-25.666c0.393 0.091 0.798 0.175 1.21 0.244 0.676 0.114 1.388 0.197 2.082 0.249zM33.232 5.557l-0.925 0.311c-0.85 0.286-1.71 0.542-2.572 0.77-2.304 0.617-4.95 0.976-7.679 0.986l-0.006 0c-0.603 0-1.158-0.016-1.695-0.051l-0.738-0.048v20.825l0.634 0.055c0.587 0.052 1.193 0.078 1.804 0.078 2.155-0.009 4.239-0.295 6.224-0.822l-0.172 0.039c1.814-0.461 3.388-1.043 4.881-1.767l-0.151 0.066 0.396-0.19v-20.25z"></path>
</svg>
